<?xml version="1.0" encoding="UTF-8"?>
<svg version="1.1" xmlns="http://www.w3.org/2000/svg" width="512" height="512">
<path d="M0 0 C29.55107434 -1.00327722 58.82785276 11.86492025 80.20922852 31.73681641 C98.54616221 49.48772126 109.3004392 72.17314888 113.59375 97.1640625 C113.72523438 97.90140625 113.85671875 98.63875 113.9921875 99.3984375 C118.24641702 129.06306499 110.03782545 161.45386392 92.23339844 185.4777832 C91.03496419 187.05124551 89.8150177 188.60825613 88.59375 190.1640625 C87.99820313 190.93234375 87.40265625 191.700625 86.7890625 192.4921875 C82.54970727 197.64432257 77.51846062 201.69135504 72.29638672 205.81152344 C68.91104968 208.50076451 65.57003599 211.24510564 62.21875 213.9765625 C60.87797787 215.06686597 59.53684831 216.15673008 58.1953125 217.24609375 C57.57406494 217.75269531 56.95281738 218.25929688 56.31274414 218.78125 C54.85622108 219.95292258 53.37047295 221.0881207 51.87890625 222.21484375 C49.27815181 224.43326506 47.40971041 226.77219454 45.40625 229.5390625 C44.73207031 230.45429688 44.05789063 231.36953125 43.36328125 232.3125 C41.56439895 235.2113611 40.53373648 237.8958018 39.59375 241.1640625 C40.12484375 241.53917969 40.6559375 241.91429687 41.203125 242.30078125 C47.97663102 247.20786499 52.50725791 251.81172072 54.59375 260.1640625 C55.04767517 264.81579763 55.05822091 269.43069075 55.03125 274.1015625 C55.05123047 275.32552734 55.07121094 276.54949219 55.09179688 277.81054688 C55.08625757 288.10811842 52.95174427 295.80606823 45.59375 303.1640625 C44.3975 303.6590625 43.20125 304.1540625 41.96875 304.6640625 C40.06366659 305.52038322 40.06366659 305.52038322 38.59375 307.1640625 C37.5632447 310.59908017 36.99181377 314.01784015 36.3828125 317.55078125 C34.46878484 326.31551186 28.98349545 333.22003352 21.59375 338.1640625 C11.66087244 343.50501961 1.37913213 344.3380915 -9.40625 341.1640625 C-18.76378937 337.32851606 -25.10922837 330.99459822 -29.4375 321.921875 C-30.50945676 318.87025617 -30.87162335 316.06248403 -31.21875 312.8515625 C-31.69854175 308.70343079 -31.69854175 308.70343079 -34.125 305.50390625 C-35.51517198 304.69729527 -36.93329212 303.93696928 -38.375 303.2265625 C-42.97491591 300.82045264 -45.82926989 296.26392398 -47.78442383 291.54150391 C-49.0835472 286.57453752 -48.8851333 281.41718825 -48.85229492 276.31298828 C-48.84379644 274.3000611 -48.87258035 272.28999084 -48.90429688 270.27734375 C-48.89973276 261.12173898 -48.01127895 254.30984579 -41.90625 247.2890625 C-35.87683824 242.1640625 -35.87683824 242.1640625 -33.40625 242.1640625 C-37.53299616 228.60063107 -48.02348681 219.97602221 -58.99047852 211.67578125 C-85.62057215 191.50513434 -102.60798407 165.59140229 -108.0234375 132.37890625 C-111.50839446 100.66971362 -104.84350747 68.97657399 -84.90625 43.6015625 C-83.11903544 41.41282477 -81.28298925 39.27634114 -79.40625 37.1640625 C-78.60574219 36.26300781 -77.80523437 35.36195312 -76.98046875 34.43359375 C-60.32724903 16.85368095 -36.43719067 4.42752358 -12.40625 1.1640625 C-11.20162109 0.99970703 -11.20162109 0.99970703 -9.97265625 0.83203125 C-6.65338553 0.44366104 -3.33328789 0.22726963 0 0 Z M-68.40625 53.1640625 C-78.30283652 65.22491247 -84.48715922 79.20170377 -88.40625 94.1640625 C-88.65246094 95.05996094 -88.89867187 95.95585937 -89.15234375 96.87890625 C-94.49819107 120.21629489 -88.87784253 146.03804826 -77.1015625 166.5078125 C-69.95321123 177.70799421 -61.87453418 186.57781659 -51.21875 194.4140625 C-41.35123684 201.82140887 -32.27056616 209.59935366 -24.40625 219.1640625 C-24.07625 219.1640625 -23.74625 219.1640625 -23.40625 219.1640625 C-23.40625 195.0740625 -23.40625 170.9840625 -23.40625 146.1640625 C-30.33625 145.6690625 -30.33625 145.6690625 -37.40625 145.1640625 C-44.84773796 143.02336048 -49.29803411 140.36922402 -53.15625 133.6640625 C-56.81431931 126.90357998 -57.54714306 120.05464229 -55.79296875 112.53515625 C-53.27685484 105.27500377 -49.10780861 100.49816961 -42.203125 97.0703125 C-33.88547064 93.92938008 -26.719615 94.39713677 -18.6328125 97.96484375 C-13.33358526 100.81898895 -8.7440615 106.13242648 -6.83203125 111.89453125 C-5.83069081 117.23195138 -5.75661023 122.75850468 -5.40625 128.1640625 C-0.12625 128.1640625 5.15375 128.1640625 10.59375 128.1640625 C10.965 124.4515625 10.965 124.4515625 11.34375 120.6640625 C12.29707195 112.60496869 13.753139 106.61454825 19.78125 100.8515625 C25.52999462 96.3530779 32.08234084 94.58790646 39.33203125 94.87890625 C45.92946652 95.71070724 52.25674727 97.89680412 56.59375 103.1640625 C61.44778375 110.67531798 63.487369 117.86850524 62.03125 126.7265625 C60.24149526 133.51814837 56.2620258 138.33790549 50.40625 142.1015625 C42.99686432 146.41274352 38.54560844 145.50060527 28.59375 146.1640625 C28.59375 170.5840625 28.59375 195.0040625 28.59375 220.1640625 C32.52078366 216.24432881 32.52078366 216.24432881 36.36328125 212.25390625 C42.1363419 206.23597407 48.04371011 200.84135085 54.78125 195.9140625 C77.8485428 179.0067699 91.25881181 157.55330225 95.84375 129.1015625 C99.07685298 103.20787163 92.5461295 77.55750265 76.69140625 56.75390625 C58.67198663 34.50646639 37.09023029 21.56193941 8.59375 18.1640625 C-22.10742661 15.66512952 -48.43692425 31.25718089 -68.40625 53.1640625 Z M-36.21875 113.7265625 C-38.84306169 116.65079552 -39.32497313 118.26277253 -39.40625 122.1640625 C-38.28606101 125.52462946 -37.46090901 126.12762316 -34.40625 128.1640625 C-31.66106679 128.40593901 -31.66106679 128.40593901 -28.71875 128.2890625 C-27.72488281 128.27101562 -26.73101562 128.25296875 -25.70703125 128.234375 C-24.94777344 128.21117187 -24.18851563 128.18796875 -23.40625 128.1640625 C-22.75385673 121.04223551 -22.75385673 121.04223551 -25.03125 114.5390625 C-29.2075952 112.12117844 -31.87722757 111.31460559 -36.21875 113.7265625 Z M30.59375 115.1640625 C28.07464542 119.36257013 28.43270209 123.41314927 28.59375 128.1640625 C35.90787913 128.69150049 35.90787913 128.69150049 42.78125 126.6015625 C45.27196701 123.25197755 45.17703427 121.24705237 44.59375 117.1640625 C43.62271212 114.70219671 43.62271212 114.70219671 41.59375 113.1640625 C36.91973734 111.63992794 34.37839646 112.01019045 30.59375 115.1640625 Z M-5.40625 146.1640625 C-5.40625 176.8540625 -5.40625 207.5440625 -5.40625 239.1640625 C-0.12625 239.1640625 5.15375 239.1640625 10.59375 239.1640625 C10.59375 208.4740625 10.59375 177.7840625 10.59375 146.1640625 C5.31375 146.1640625 0.03375 146.1640625 -5.40625 146.1640625 Z M-29.40625 260.1640625 C-31.39308397 264.13773045 -30.67881128 269.10726688 -30.71875 273.4765625 C-30.74775391 274.52263672 -30.77675781 275.56871094 -30.80664062 276.64648438 C-30.81501953 277.65904297 -30.82339844 278.67160156 -30.83203125 279.71484375 C-30.84661377 280.63950439 -30.86119629 281.56416504 -30.8762207 282.5168457 C-30.2475128 286.05818586 -28.91103711 287.60741879 -26.40625 290.1640625 C-23.71672884 290.91564622 -23.71672884 290.91564622 -20.70727539 290.81103516 C-19.56251236 290.82679596 -18.41774933 290.84255676 -17.23829651 290.85879517 C-16.00594772 290.84867401 -14.77359894 290.83855286 -13.50390625 290.828125 C-12.2340538 290.83290863 -10.96420135 290.83769226 -9.65586853 290.84262085 C-6.96933867 290.84602472 -4.28508197 290.83931091 -1.59887695 290.81591797 C1.83594424 290.78745625 5.26880978 290.80381643 8.70355892 290.83378029 C11.98863953 290.85624787 15.27348755 290.84049093 18.55859375 290.828125 C20.40408058 290.84330673 20.40408058 290.84330673 22.28684998 290.85879517 C28.98568305 290.82502593 28.98568305 290.82502593 34.86914062 287.94287109 C36.70352291 284.98718888 37.22554652 283.48170047 37.22265625 280.0390625 C37.22458984 279.08515625 37.22652344 278.13125 37.22851562 277.1484375 C37.19274414 275.67117188 37.19274414 275.67117188 37.15625 274.1640625 C37.17268555 272.68679688 37.17268555 272.68679688 37.18945312 271.1796875 C37.14391334 266.68642861 37.06234288 263.93067663 34.68359375 260.0390625 C31.46375438 257.15023466 29.6391761 257.03317793 25.3972168 257.00292969 C24.31236496 256.99332214 23.22751312 256.9837146 22.10978699 256.97381592 C20.93273697 256.96956604 19.75568695 256.96531616 18.54296875 256.9609375 C16.73382744 256.95238739 16.73382744 256.95238739 14.88813782 256.94366455 C12.33176555 256.93420404 9.77538102 256.92767641 7.21899414 256.92382812 C3.30788873 256.91412856 -0.60269003 256.88311659 -4.51367188 256.8515625 C-6.99478854 256.84503206 -9.47590897 256.83978175 -11.95703125 256.8359375 C-13.12800858 256.8235907 -14.2989859 256.8112439 -15.50544739 256.79852295 C-16.59975571 256.80152405 -17.69406403 256.80452515 -18.8215332 256.80761719 C-19.78146683 256.80397156 -20.74140045 256.80032593 -21.73042297 256.79656982 C-24.92462834 257.23525553 -26.80910203 258.28351546 -29.40625 260.1640625 Z M-13.40625 308.1640625 C-12.80033473 314.60597595 -12.80033473 314.60597595 -9.59375 318.9765625 C-9.09230469 319.53988281 -8.59085937 320.10320312 -8.07421875 320.68359375 C-3.74862973 324.52293389 0.30183302 324.59588097 5.90234375 324.4765625 C11.16124099 323.86595034 13.70201042 321.27271171 16.90625 317.2890625 C18.978142 313.85588589 18.978142 313.85588589 19.59375 308.1640625 C8.70375 308.1640625 -2.18625 308.1640625 -13.40625 308.1640625 Z " fill="#000000" transform="translate(338.40625,58.8359375)"/>
<path d="M0 0 C1.27751633 -0.01457748 1.27751633 -0.01457748 2.58084106 -0.02944946 C11.60727782 -0.11678699 20.43905233 0.12948994 29.36328125 1.58203125 C30.42726387 1.74417366 30.42726387 1.74417366 31.51274109 1.90959167 C34.5622343 2.47355366 36.48808974 3.00020957 38.74682617 5.17456055 C40.41866581 8.5285811 40.54766492 11.70805062 39.8125 15.3125 C37.875 18.3125 37.875 18.3125 34.8125 20.3125 C30.51867695 21.01453191 26.4161105 20.39490157 22.13378906 19.81030273 C-2.40134672 16.74404073 -27.89491645 19.56860215 -52.1875 23.3125 C-53.42935059 23.49973633 -54.67120117 23.68697266 -55.95068359 23.87988281 C-100.23257962 30.67262829 -146.84589584 39.92931701 -175.5546875 77.40234375 C-189.11713624 96.3850791 -197.00851142 115.91373868 -202.63110352 138.47265625 C-205.22896871 148.79696231 -208.61680525 158.40954245 -212.859375 168.17578125 C-213.13386475 168.80830811 -213.40835449 169.44083496 -213.69116211 170.0925293 C-214.44393027 171.80960414 -215.21537416 173.51845813 -215.98828125 175.2265625 C-217.20943098 178.36893477 -218.02627846 180.94066662 -218.1875 184.3125 C-217.0004349 186.59307476 -217.0004349 186.59307476 -215.0625 188.4375 C-214.08796875 189.46230469 -214.08796875 189.46230469 -213.09375 190.5078125 C-211.13608846 192.42548909 -211.13608846 192.42548909 -208.5625 194.3125 C-203.42151504 198.64175049 -200.32217181 204.7314035 -199.1875 211.3125 C-198.45332881 220.27272571 -202.94623479 227.59512814 -207.0625 235.20361328 C-208.13335304 237.21099794 -209.15201614 239.23597523 -210.15625 241.27734375 C-219.03470093 259.08206101 -230.69387219 275.45297988 -242.83203125 291.16796875 C-245.82433555 295.05439401 -245.82433555 295.05439401 -248.1875 299.3125 C-246.98195863 302.84125162 -245.36255319 304.10265929 -242.1171875 305.79296875 C-240.90083618 306.44821533 -240.90083618 306.44821533 -239.65991211 307.11669922 C-238.80276611 307.57318848 -237.94562012 308.02967773 -237.0625 308.5 C-221.01100308 317.50511872 -221.01100308 317.50511872 -218.21484375 326.41015625 C-215.74839829 339.03776625 -219.59423621 348.09079466 -225.1875 359.3125 C-224.30964844 359.73402344 -224.30964844 359.73402344 -223.4140625 360.1640625 C-219.40925634 362.22969936 -215.46015264 364.59718558 -212.75 368.25 C-211.48734952 372.87971841 -211.8347195 376.05761933 -214.1875 380.1875 C-214.8475 381.21875 -215.5075 382.25 -216.1875 383.3125 C-215.60742188 383.6528125 -215.02734375 383.993125 -214.4296875 384.34375 C-207.20568235 388.82597102 -201.81189652 394.04385344 -199.1875 402.3125 C-198.921875 405.66015625 -198.921875 405.66015625 -198.9375 409.375 C-198.93919189 410.0362085 -198.94088379 410.69741699 -198.94262695 411.37866211 C-199.00391469 415.51683027 -199.5015989 419.33891046 -200.375 423.375 C-201.69270584 430.27192844 -200.53549263 436.73647867 -198.1875 443.3125 C-195.44809668 447.34535354 -193.21487124 449.46311706 -188.59204102 450.86767578 C-179.39501904 452.56906415 -168.12424616 447.49836718 -159.25 444.9375 C-158.49251465 444.72008148 -157.7350293 444.50266296 -156.95458984 444.27865601 C-140.03614337 439.40748149 -123.35807434 433.89305002 -106.7097168 428.17559814 C-104.03299701 427.25962935 -101.35373394 426.35142743 -98.67382812 425.44482422 C-93.86559313 423.81786182 -89.06190673 422.17804986 -84.26098633 420.52963257 C-82.41240809 419.89643658 -80.56267336 419.26660448 -78.71166992 418.64053345 C-69.68246671 415.58081413 -60.83690829 412.38747082 -52.28515625 408.1484375 C-51.33017242 407.67630829 -51.33017242 407.67630829 -50.355896 407.19464111 C-42.37193191 403.0748307 -35.76837625 397.71089145 -32.1875 389.3125 C-31.58465795 386.739118 -31.19786 384.19525372 -30.8125 381.58203125 C-30.08546614 378.94198956 -29.36715323 377.94470544 -27.1875 376.3125 C-24.20164591 375.59011595 -22.1696293 375.10322777 -19.1875 375.3125 C-16.32756522 377.07714061 -14.68967151 378.30815697 -13.1875 381.3125 C-12.09213368 390.48843749 -14.5406894 398.88922574 -19.8125 406.4375 C-33.91609532 423.73035055 -53.94326069 430.11364771 -74.25 437.3125 C-75.52593018 437.76677368 -75.52593018 437.76677368 -76.82763672 438.23022461 C-77.61799316 438.50487549 -78.40834961 438.77952637 -79.22265625 439.0625 C-79.9175415 439.30484375 -80.61242676 439.5471875 -81.32836914 439.796875 C-83.1875 440.3125 -83.1875 440.3125 -86.1875 440.3125 C-85.83558594 440.78445801 -85.48367187 441.25641602 -85.12109375 441.74267578 C-72.61126348 458.59256793 -64.91640647 473.02412052 -57.1875 493.3125 C5.8425 493.3125 68.8725 493.3125 133.8125 493.3125 C131.8325 490.0125 129.8525 486.7125 127.8125 483.3125 C115.89826643 460.10758153 103.23743888 424.74781108 106.8125 398.3125 C108.73244829 394.76798008 109.8876248 393.63419572 113.6875 392.3125 C117.53341174 392.3125 119.5868574 393.25981835 122.8125 395.3125 C125.03034353 398.63926529 125.31340369 400.55038997 125.85546875 404.47265625 C126.03827393 405.72852539 126.2210791 406.98439453 126.40942383 408.27832031 C126.50494537 408.94593384 126.60046692 409.61354736 126.69888306 410.3013916 C130.62640878 437.34786142 137.42719017 462.86379989 151.8125 486.3125 C153.14690865 488.57052875 154.4593224 490.84169284 155.75 493.125 C156.33652344 494.14207031 156.92304688 495.15914063 157.52734375 496.20703125 C159.0302874 499.83876438 159.17765346 502.41598899 158.8125 506.3125 C157.01687595 509.06579021 155.75995078 510.83877461 152.8125 512.3125 C149.93916004 512.41937706 147.08958372 512.46471848 144.21562195 512.46640015 C143.31497586 512.4707824 142.41432976 512.47516465 141.48639137 512.4796797 C138.45015404 512.49309904 135.41394576 512.49925356 132.37768555 512.50537109 C130.20818957 512.51326951 128.03869492 512.5215383 125.86920166 512.53015137 C118.72922017 512.55639883 111.58923273 512.57168047 104.44921875 512.5859375 C101.99455066 512.59129582 99.53988262 512.59667332 97.08521461 512.60206985 C86.87775907 512.62370145 76.67030513 512.64243984 66.46283245 512.65369225 C51.81647471 512.66994228 37.17048482 512.70314242 22.52422684 512.76009309 C12.2354461 512.79874136 1.94673635 512.81831881 -8.3421151 512.82361281 C-14.49209071 512.82727291 -20.64178402 512.83936444 -26.79168129 512.87171555 C-32.57586177 512.90170644 -38.35958779 512.90813996 -44.14382935 512.89633179 C-46.26871112 512.89611031 -48.39361344 512.90447637 -50.51842308 512.92198563 C-53.41605793 512.94456671 -56.3120294 512.93643361 -59.20967102 512.92050171 C-60.05364215 512.9343838 -60.89761327 512.94826588 -61.76715928 512.96256864 C-66.08693136 512.90391057 -67.68998883 512.71103751 -71.18091106 509.91459084 C-73.07157565 507.4628276 -74.07896369 505.73805061 -74.92578125 502.79296875 C-75.18423828 501.94331543 -75.44269531 501.09366211 -75.70898438 500.21826172 C-75.97001953 499.32123535 -76.23105469 498.42420898 -76.5 497.5 C-79.50760857 487.87198477 -83.24398628 479.09568462 -88.1875 470.3125 C-88.76371094 469.28511719 -89.33992187 468.25773437 -89.93359375 467.19921875 C-93.74155298 460.84089422 -99.02058338 452.08911859 -106.35522461 449.56713867 C-110.15317104 449.22568034 -113.18587428 450.31650388 -116.71484375 451.55859375 C-117.4484462 451.80498596 -118.18204865 452.05137817 -118.93788147 452.30523682 C-120.51607324 452.83548722 -122.09264638 453.37057496 -123.66772461 453.91000366 C-127.81940027 455.3292147 -131.98469949 456.70662457 -136.15234375 458.078125 C-136.99356781 458.35504684 -137.83479187 458.63196869 -138.70150757 458.9172821 C-146.7916628 461.55476674 -154.95630354 463.84850115 -163.1875 466 C-164.43136475 466.32605225 -165.67522949 466.65210449 -166.95678711 466.98803711 C-179.25533305 470.16338589 -190.72627749 472.8581544 -202.38671875 466.0234375 C-204.44452259 464.55749724 -206.3166994 463.00955454 -208.1875 461.3125 C-208.73277344 460.83296875 -209.27804688 460.3534375 -209.83984375 459.859375 C-217.83198487 451.80622517 -219.84407682 439.75157759 -220.2734375 428.859375 C-220.17225756 424.68340301 -219.55946677 420.82132732 -218.6875 416.74609375 C-217.92295342 413.0249022 -217.72929717 410.10903772 -218.1875 406.3125 C-221.30965238 402.08248709 -225.70194754 399.52010138 -230.1015625 396.7421875 C-233.3569842 394.51094341 -234.92379363 393.1036191 -236.1875 389.3125 C-236.3299965 385.03760507 -236.34735331 381.8819774 -235.1875 377.75 C-234.81105537 374.32724361 -234.81105537 374.32724361 -236.83203125 372.42578125 C-238.25394841 371.2037011 -239.71250796 370.02275946 -241.20703125 368.890625 C-243.1875 367.3125 -243.1875 367.3125 -245.1875 364.3125 C-245.96213201 356.82439061 -243.6442005 351.70302217 -240.03125 345.24609375 C-237.33172171 340.31945463 -236.00812966 336.93718932 -237.1875 331.3125 C-239.82501615 328.68788124 -242.9260295 327.06266938 -246.1875 325.3125 C-254.87702464 320.58602729 -263.30338304 315.93370715 -267.1875 306.3125 C-268.60339301 297.15003851 -266.40598125 290.77179912 -261.1875 283.3125 C-259.0398673 280.50778161 -256.86037148 277.73829132 -254.64160156 274.98999023 C-242.57806773 259.94693323 -232.83984369 243.05261817 -223.6875 226.125 C-223.36104492 225.52534424 -223.03458984 224.92568848 -222.69824219 224.30786133 C-220.79797239 220.73144834 -219.02953251 217.28601288 -218.1875 213.3125 C-219.2009467 211.11428187 -219.2009467 211.11428187 -221.125 209.375 C-221.77984375 208.69566406 -222.4346875 208.01632813 -223.109375 207.31640625 C-224.42598776 206.04681538 -225.74824784 204.78303355 -227.078125 203.52734375 C-233.11496248 197.76610102 -236.60827547 191.75721059 -237.5 183.375 C-237.3144378 174.61646413 -233.22517481 166.17535861 -229.6875 158.3125 C-225.87912309 149.83466096 -223.22625926 141.2687429 -220.859375 132.28125 C-212.67209859 101.30422266 -200.47673707 76.32092312 -179.1875 52.3125 C-178.60742188 51.64734375 -178.02734375 50.9821875 -177.4296875 50.296875 C-144.06619091 14.41854198 -85.84510653 8.6111858 -40.1875 2.3125 C-38.82431641 2.11116455 -38.82431641 2.11116455 -37.43359375 1.90576172 C-25.01518087 0.08749739 -12.52627572 0.08411497 0 0 Z " fill="#000000" transform="translate(267.1875,-0.3125)"/>
<path d="M0 0 C2.99380345 1.99586897 4.63808488 3.38259171 5.44140625 6.97265625 C5.62751401 10.18451598 5.42322137 12.42766436 3.4921875 15.0390625 C0.11430533 17.69689455 -3.41300073 18.89127539 -7.4375 20.3125 C-32.1323889 29.51348184 -48.27943022 44.42970335 -59.546875 68.2734375 C-63.28211429 76.99541377 -65.69126211 85.90240647 -67.82055664 95.14379883 C-69.05749492 100.29851391 -70.06562916 104.19203465 -74 108 C-76.85324437 109.42662219 -78.83454549 109.31033868 -82 109 C-84.69990662 107.20006226 -86.5418865 105.916227 -88 103 C-88.4763792 96.70678005 -87.04721673 91.12208024 -85.4375 85.0625 C-85.1686499 84.04559082 -84.8997998 83.02868164 -84.62280273 81.98095703 C-82.21366722 73.20447428 -79.04585437 65.13626662 -75 57 C-74.18402344 55.31197266 -74.18402344 55.31197266 -73.3515625 53.58984375 C-69.12595884 45.26758677 -63.88657674 38.20206575 -58 31 C-57.20078125 29.99324219 -56.4015625 28.98648438 -55.578125 27.94921875 C-43.94712041 14.64405441 -18.4071921 -2.90639875 0 0 Z " fill="#000000" transform="translate(166,50)"/>
<path d="M0 0 C2.9375 2.0625 2.9375 2.0625 5 5 C5.77571153 9.74045934 5.09705456 12.37709066 2.37524414 16.27172852 C-0.48457959 19.86567352 -3.79137417 23.03481601 -7.0625 26.25 C-7.78244141 26.96929687 -8.50238281 27.68859375 -9.24414062 28.4296875 C-16.73412176 35.85707826 -16.73412176 35.85707826 -21.875 36.4375 C-25.21647704 36.33269352 -26.05818326 35.96121116 -29 34 C-31.00732644 30.98901035 -31.98427623 28.88962178 -31.73046875 25.2265625 C-30.06598703 20.15300859 -25.72065408 16.6511591 -22 13 C-21.02860132 11.99865644 -20.05990123 10.99468878 -19.09375 9.98828125 C-8.40144572 -1.03175649 -8.40144572 -1.03175649 0 0 Z " fill="#000000" transform="translate(460,47)"/>
<path d="M0 0 C5.43300158 1.10501727 7.82940205 3.89786511 11.6875 7.75 C12.95503703 8.92663112 14.22476522 10.10090405 15.49609375 11.2734375 C16.87395462 12.57647869 18.25024048 13.88118719 19.625 15.1875 C20.30046875 15.80761963 20.9759375 16.42773926 21.671875 17.06665039 C24.88047632 20.1898905 27.0440176 22.52030873 27.7421875 27.0390625 C27.6875 30.75 27.6875 30.75 25.875 33.6875 C23.21787649 36.19278788 22.18483211 36.67042686 18.5625 37.25 C12.89725415 36.51900054 10.62252819 33.71625858 6.6875 29.75 C5.49309627 28.57849983 4.29770031 27.40801082 3.1015625 26.23828125 C0.58017346 23.75569268 -1.93683097 21.26909149 -4.43359375 18.76171875 C-4.9639624 18.23022217 -5.49433105 17.69872559 -6.04077148 17.15112305 C-8.61548992 14.3144348 -8.71406461 11.55794113 -8.65234375 7.79296875 C-8.3125 5.75 -8.3125 5.75 -6.25 2.75 C-3.3125 0.75 -3.3125 0.75 0 0 Z " fill="#000000" transform="translate(226.3125,46.25)"/>
<path d="M0 0 C0.74234894 -0.00807175 1.48469788 -0.01614349 2.24954224 -0.02445984 C3.82144843 -0.03829592 5.39338462 -0.04902021 6.96533203 -0.05688477 C9.3667908 -0.07410387 11.76687468 -0.11799155 14.16796875 -0.16210938 C15.69530238 -0.17223604 17.22264771 -0.18075223 18.75 -0.1875 C19.46678925 -0.20500809 20.18357849 -0.22251617 20.92208862 -0.24055481 C24.32001921 -0.2258046 26.17815959 -0.00788038 28.93408203 2.05004883 C31.15425307 5.13714052 31.44155962 7.46186691 31.5078125 11.23828125 C30.3153457 14.06254472 29.38100528 15.66245282 26.81591797 17.35400391 C22.06062438 19.1758437 16.74959978 18.61007532 11.71826172 18.60888672 C9.64596961 18.61325352 7.575821 18.6495781 5.50390625 18.6875 C3.52970703 18.69330078 3.52970703 18.69330078 1.515625 18.69921875 C0.31566895 18.70743652 -0.88428711 18.7156543 -2.12060547 18.72412109 C-6.15806935 18.14232869 -8.32993162 16.7667299 -11.4921875 14.23828125 C-12.7178396 11.5923456 -12.75597821 9.12850989 -12.4921875 6.23828125 C-9.65073839 -0.12115247 -6.40831529 0.06567053 0 0 Z " fill="#000000" transform="translate(182.4921875,161.76171875)"/>
<path d="M0 0 C0.7381041 -0.00241196 1.47620819 -0.00482391 2.23667908 -0.00730896 C3.79073482 -0.00633301 5.3448264 0.00700083 6.89868164 0.03198242 C9.27415119 0.06636005 11.64591097 0.05261662 14.02148438 0.03320312 C15.53517204 0.0401005 17.04885014 0.04977191 18.5625 0.0625 C19.26987808 0.05754013 19.97725616 0.05258026 20.70606995 0.04747009 C24.1252261 0.1289841 25.92456723 0.40372819 28.65991211 2.52563477 C30.93373288 5.60130849 30.77186968 7.79537671 30.61328125 11.50390625 C30.040195 14.56036623 28.71360511 15.8650747 26.21484375 17.62890625 C21.94005729 19.76629948 16.26747156 18.85588454 11.52124023 18.86914062 C9.42065464 18.87882186 7.321058 18.90983309 5.22070312 18.94140625 C3.87891205 18.94793911 2.53711398 18.95318847 1.1953125 18.95703125 C-0.63157104 18.9710498 -0.63157104 18.9710498 -2.49536133 18.98535156 C-6.09619429 18.59520565 -7.92302978 17.8087835 -10.78515625 15.62890625 C-13.28547279 11.87843143 -13.32119179 10.07034359 -12.78515625 5.62890625 C-9.06206521 0.72639841 -5.9047897 -0.11098959 0 0 Z " fill="#000000" transform="translate(481.78515625,161.37109375)"/>
<path d="M0 0 C0.77085937 -0.03738281 1.54171875 -0.07476563 2.3359375 -0.11328125 C5.60711293 0.49517971 6.59915175 1.68786213 8.625 4.3125 C9.03543031 7.00218039 9.21025355 9.2768354 9.19140625 11.96484375 C9.20070412 13.0705648 9.20070412 13.0705648 9.21018982 14.19862366 C9.21727893 15.7543913 9.21412966 17.31023495 9.20141602 18.8659668 C9.18756101 21.23954775 9.22161052 23.60917458 9.25976562 25.98242188 C9.26071703 27.49739679 9.25885682 29.01237662 9.25390625 30.52734375 C9.26716446 31.2326976 9.28042267 31.93805145 9.29408264 32.66477966 C9.22175278 36.51651169 8.71216514 38.20163841 6.30444336 41.26391602 C3.625 43.3125 3.625 43.3125 0.125 43.875 C-3.89839163 43.22838349 -5.55803517 42.21231674 -8.375 39.3125 C-10.06566316 34.24051052 -9.6003202 28.85166192 -9.61523438 23.54345703 C-9.62493395 21.45174294 -9.65596762 19.36101463 -9.6875 17.26953125 C-9.6940314 15.93229747 -9.69928133 14.5950567 -9.703125 13.2578125 C-9.7124707 12.04625488 -9.72181641 10.83469727 -9.73144531 9.58642578 C-9.34349637 6.02314127 -8.51771335 4.15488815 -6.375 1.3125 C-4.07513269 0.16256634 -2.56030912 0.0808071 0 0 Z " fill="#000000" transform="translate(341.375,-0.3125)"/>
<path d="M0 0 C1.9375 1.0625 1.9375 1.0625 3 3 C4.67546482 9.38770961 4.67546482 9.38770961 3.22265625 12.85546875 C1.57077798 15.19702011 -0.15484716 16.76362929 -2.94140625 17.54296875 C-6.8517803 17.81751114 -8.69070418 17.20619721 -12 15 C-14.20619721 11.69070418 -14.81751114 9.8517803 -14.54296875 5.94140625 C-13.76362929 3.15484716 -12.19702011 1.42922202 -9.85546875 -0.22265625 C-6.27673683 -1.72195657 -3.71125636 -0.97344429 0 0 Z " fill="#000000" transform="translate(82,171)"/>
</svg>
